<?xml version="1.0" encoding="iso-8859-1"?>
<!-- Generator: Adobe Illustrator 21.0.0, SVG Export Plug-In . SVG Version: 6.00 Build 0)  -->
<svg xmlns="http://www.w3.org/2000/svg" xmlns:xlink="http://www.w3.org/1999/xlink" version="1.1" id="Capa_1" x="0px" y="0px" viewBox="0 0 512 512" style="enable-background:new 0 0 512 512;" xml:space="preserve" width="512" height="512">
<g>
	<g>
		<g>
			<path style="fill:#25D9F8;" d="M346,512c-24.814,0-45-20.186-45-45c0-7.866,2.065-15.63,5.991-22.456l26.016-45.044     c5.361-9.287,20.625-9.287,25.986,0l26.001,45.015C388.935,451.37,391,459.134,391,467C391,491.814,370.814,512,346,512z"/>
		</g>
	</g>
	<path style="fill:#F9BD13;" d="M316,91c-30.366,0-57.539,18.105-69.229,46.128c-3.193,7.646,0.425,16.421,8.071,19.614   l98.936,58.213c2.754,2.183,6.035,3.237,9.287,3.237c4.438,0,8.818-1.948,11.777-5.698C385.258,199.325,391,182.816,391,166   C391,124.647,357.353,91,316,91z"/>
	<g>
		<g>
			<path style="fill:#F9BD13;" d="M316,60c-8.291,0-15-6.709-15-15V15c0-8.291,6.709-15,15-15s15,6.709,15,15v30     C331,53.291,324.291,60,316,60z"/>
		</g>
	</g>
	<g>
		<g>
			<path style="fill:#F9BD13;" d="M466,181h-30c-8.291,0-15-6.709-15-15s6.709-15,15-15h30c8.291,0,15,6.709,15,15     S474.291,181,466,181z"/>
		</g>
	</g>
	<g>
		<g>
			<path style="fill:#F9BD13;" d="M400.858,96.142c-3.838,0-7.676-1.465-10.605-4.395c-5.859-5.859-5.859-15.352,0-21.211     l21.211-21.211c5.859-5.859,15.352-5.859,21.211,0s5.859,15.352,0,21.211l-21.211,21.211     C408.534,94.677,404.696,96.142,400.858,96.142z"/>
		</g>
	</g>
	<g>
		<g>
			<path style="fill:#F9BD13;" d="M231.142,96.142c-3.838,0-7.676-1.465-10.605-4.395l-21.211-21.211     c-5.859-5.859-5.859-15.352,0-21.211s15.352-5.859,21.211,0l21.211,21.211c5.859,5.859,5.859,15.352,0,21.211     C238.817,94.677,234.979,96.142,231.142,96.142z"/>
		</g>
	</g>
	<path style="fill:#E0F3FC;" d="M331,181c-3.3,0-6.599,0.3-9.901,0.601C303.999,144.699,267.4,121,226,121   s-77.999,23.699-95.099,60.601C78.401,175.901,31,219.2,31,272c0,37.8,23.401,70.8,58.2,83.699c7.2,3.001,15,4.801,23.101,5.7   L226,361.7h38.699L331,362c49.501,0,90-40.499,90-90S380.501,181,331,181z"/>
	<path style="fill:#FCD82D;" d="M268.9,354.8l-4.2,6.899L226,426.2l-47.1,78.6c-2.699,4.499-7.8,7.2-12.9,7.2c-7.8,0-15-6.599-15-15   v-75H76c-5.4,0-10.499-2.999-13.2-7.5c-2.401-4.799-2.401-10.499,0.3-15.3l26.1-43.5l63.9-106.5c3.6-5.7,10.499-8.399,16.8-6.599   c6.599,1.8,11.1,7.8,11.1,14.399v75h75c5.4,0,10.499,2.999,13.2,7.5C271.601,344.299,271.601,349.999,268.9,354.8z"/>
	<path style="fill:#BDD9F1;" d="M421,272c0,49.501-40.499,90-90,90l-66.301-0.3H226V121c41.4,0,77.999,23.699,95.099,60.601   C324.401,181.3,327.7,181,331,181C380.501,181,421,222.499,421,272z"/>
	<path style="fill:#F9BD13;" d="M268.9,354.8l-4.2,6.899L226,426.2V332h30c5.4,0,10.499,2.999,13.2,7.5   C271.601,344.299,271.601,349.999,268.9,354.8z"/>
</g>















</svg>
