<?xml version="1.0" encoding="iso-8859-1"?>
<!-- Generator: Adobe Illustrator 21.0.0, SVG Export Plug-In . SVG Version: 6.00 Build 0)  -->
<svg xmlns="http://www.w3.org/2000/svg" xmlns:xlink="http://www.w3.org/1999/xlink" version="1.1" id="Capa_1" x="0px" y="0px" viewBox="0 0 512.002 512.002" style="enable-background:new 0 0 512.002 512.002;" xml:space="preserve" width="512" height="512">
<g>
	<g>
		<g>
			<path style="fill:#E0F3FC;" d="M331.031,181c-3.3,0-6.599,0.3-9.901,0.601C304.03,144.699,267.431,121,226.031,121     s-77.999,23.699-95.099,60.601c-52.5-5.7-99.901,36.599-99.901,89.399c0,49.501,40.499,90,90,90h210c49.501,0,90-40.499,90-90     S380.532,181,331.031,181z"/>
		</g>
	</g>
	<g>
		
			<ellipse transform="matrix(0.8444 -0.5357 0.5357 0.8444 -259.0828 101.9705)" style="fill:#76E2F8;" cx="46.002" cy="497" rx="15" ry="15"/>
	</g>
	<g>
		
			<ellipse transform="matrix(0.8444 -0.5357 0.5357 0.8444 -240.4122 166.2539)" style="fill:#76E2F8;" cx="166.002" cy="497" rx="15" ry="15"/>
	</g>
	<g>
		
			<ellipse transform="matrix(0.8444 -0.5357 0.5357 0.8444 -221.7417 230.5372)" style="fill:#25D9F8;" cx="286.002" cy="497" rx="15" ry="15"/>
	</g>
	<g>
		
			<ellipse transform="matrix(0.8444 -0.5357 0.5357 0.8444 -225.6413 127.1107)" style="fill:#76E2F8;" cx="106.002" cy="452" rx="15" ry="15"/>
	</g>
	<g>
		<path style="fill:#76E2F8;" d="M234.131,464.599c-2.701,1.5-5.4,2.401-8.101,2.401c-5.099,0-9.901-2.401-12.599-6.899    c-4.501-7.2-2.401-16.201,4.499-20.7c2.401-1.5,5.4-2.401,8.101-2.401c4.799,0,9.6,2.401,12.599,6.899    C243.131,451.099,241.031,460.101,234.131,464.599z"/>
	</g>
	<g>
		
			<ellipse transform="matrix(0.8444 -0.5357 0.5357 0.8444 -188.3001 255.6774)" style="fill:#25D9F8;" cx="346.002" cy="452" rx="15" ry="15"/>
	</g>
	<g>
		
			<ellipse transform="matrix(0.8444 -0.5357 0.5357 0.8444 -203.0711 294.8206)" style="fill:#25D9F8;" cx="406.002" cy="497" rx="15" ry="15"/>
	</g>
	<g>
		
			<ellipse transform="matrix(0.8444 -0.5357 0.5357 0.8444 -210.8703 87.9676)" style="fill:#76E2F8;" cx="46.002" cy="407" rx="15" ry="15"/>
	</g>
	<g>
		
			<ellipse transform="matrix(0.8444 -0.5357 0.5357 0.8444 -192.1997 152.2509)" style="fill:#76E2F8;" cx="166.002" cy="407" rx="15" ry="15"/>
	</g>
	<g>
		
			<ellipse transform="matrix(0.8444 -0.5357 0.5357 0.8444 -173.5291 216.5343)" style="fill:#25D9F8;" cx="286.002" cy="407" rx="15" ry="15"/>
	</g>
	<g>
		
			<ellipse transform="matrix(0.8444 -0.5357 0.5357 0.8444 -154.8586 280.8176)" style="fill:#25D9F8;" cx="406.002" cy="407" rx="15" ry="15"/>
	</g>
	<path style="fill:#FCD82D;" d="M472.696,106.274c-5.112-2.563-11.147-1.992-15.732,1.436c-10.649,8.042-23.071,12.29-35.933,12.29   c-33.091,0-60-26.909-60-60c0-12.861,4.248-25.283,12.29-35.933c3.413-4.556,3.823-10.649,1.289-15.747   C372.076,3.237,366.714,0,361.031,0c-66.167,0-120,53.833-120,120c0,8.013,0.806,16.04,2.373,23.862l144.785,92.593   c1.289,0,2.593-0.161,3.896-0.513c52.368-14.004,88.945-61.685,88.916-116.25C481.002,114.009,477.779,108.809,472.696,106.274z"/>
	<path style="fill:#25D9F8;" d="M238.63,443.899c4.501,7.2,2.401,16.201-4.499,20.7c-2.701,1.5-5.4,2.401-8.101,2.401v-30   C230.83,437,235.631,439.401,238.63,443.899z"/>
	<path style="fill:#BDD9F1;" d="M421.031,271c0,49.501-40.499,90-90,90h-105V121c41.4,0,77.999,23.699,95.099,60.601   c3.301-0.3,6.601-0.601,9.901-0.601C380.532,181,421.031,221.499,421.031,271z"/>
</g>















</svg>
