<?xml version="1.0" encoding="iso-8859-1"?>
<!-- Generator: Adobe Illustrator 21.0.0, SVG Export Plug-In . SVG Version: 6.00 Build 0)  -->
<svg xmlns="http://www.w3.org/2000/svg" xmlns:xlink="http://www.w3.org/1999/xlink" version="1.1" id="Capa_1" x="0px" y="0px" viewBox="0 0 512 512" style="enable-background:new 0 0 512 512;" xml:space="preserve" width="512" height="512">
<g>
	<g>
		<g>
			<path style="fill:#48578C;" d="M301,361c0,8.399-6.599,15-15,15h-60c-8.401,0-15-6.601-15-15c0-8.401,6.599-15,15-15h60     C294.401,346,301,352.599,301,361z"/>
		</g>
	</g>
	<path style="fill:#2A3C74;" d="M301,361c0,8.399-6.599,15-15,15h-30v-30h30C294.401,346,301,352.599,301,361z"/>
	<path style="fill:#61729B;" d="M136,451L136,451c-49.706,0-90-40.294-90-90v-30h180v30C226,410.706,185.706,451,136,451z"/>
	<path style="fill:#48578C;" d="M376,451L376,451c-49.706,0-90-40.294-90-90v-30h180v30C466,410.706,425.706,451,376,451z"/>
	<g>
		<path style="fill:#48578C;" d="M46,376H15c-8.291,0-15-6.709-15-15s6.709-15,15-15h31c8.291,0,15,6.709,15,15S54.291,376,46,376z"/>
	</g>
	<g>
		<g>
			<path style="fill:#2A3C74;" d="M497,376h-31c-8.291,0-15-6.709-15-15s6.709-15,15-15h31c8.291,0,15,6.709,15,15     S505.291,376,497,376z"/>
		</g>
	</g>
	<g>
		<path style="fill:#48578C;" d="M45.985,496c-3.135,0-6.284-0.981-8.979-3.003c-6.636-4.966-7.983-14.37-3.003-20.991    l35.991-48.003c4.98-6.621,14.399-7.939,20.991-3.003c6.636,4.966,7.983,14.37,3.003,20.991l-35.991,48.003    C55.053,493.935,50.556,496,45.985,496z"/>
	</g>
	<g>
		<g>
			<path style="fill:#2A3C74;" d="M466.015,496c-4.57,0-9.067-2.065-12.012-6.006l-35.991-48.003     c-4.98-6.621-3.633-16.025,3.003-20.991c6.606-4.98,15.996-3.633,20.991,3.003l35.991,48.003     c4.98,6.621,3.633,16.025-3.003,20.991C472.299,495.019,469.149,496,466.015,496z"/>
		</g>
	</g>
	<g>
		<g>
			<path style="fill:#62729A;" d="M136,466c-57.891,0-105-47.109-105-105v-30c0-8.291,6.709-15,15-15h180c8.291,0,15,6.709,15,15v30     C241,418.891,193.891,466,136,466z M61,346v15c0,41.353,33.647,75,75,75s75-33.647,75-75v-15H61z"/>
		</g>
	</g>
	<g>
		<path style="fill:#48578C;" d="M376,466c-57.891,0-105-47.109-105-105v-30c0-8.291,6.709-15,15-15h180c8.291,0,15,6.709,15,15v30    C481,418.891,433.891,466,376,466z M301,346v15c0,41.353,33.647,75,75,75s75-33.647,75-75v-15H301z"/>
	</g>
	<g>
		<g>
			<g>
				<path style="fill:#F9BD13;" d="M271,31v60c0,8.399-6.599,15-15,15s-15-6.601-15-15V31c0-8.401,6.599-15,15-15S271,22.599,271,31      z"/>
			</g>
		</g>
		<g>
			<g>
				<path style="fill:#F9BD13;" d="M271,211v60c0,8.399-6.599,15-15,15s-15-6.601-15-15v-60c0-8.401,6.599-15,15-15      S271,202.599,271,211z"/>
			</g>
		</g>
		<g>
			<path style="fill:#F9BD13;" d="M202.973,119.184l-42.437-42.437c-5.859-5.859-5.859-15.352,0-21.211s15.352-5.859,21.211,0     l42.437,42.437c5.859,5.859,5.859,15.352,0,21.211C218.324,125.043,208.832,125.043,202.973,119.184z"/>
		</g>
		<g>
			<g>
				<path style="fill:#F6901E;" d="M330.253,246.464l-42.437-42.437c-5.859-5.859-5.859-15.352,0-21.211s15.352-5.859,21.211,0      l42.437,42.437c5.859,5.859,5.859,15.352,0,21.211C345.604,252.323,336.112,252.323,330.253,246.464z"/>
			</g>
		</g>
		<g>
			<g>
				<path style="fill:#F6901E;" d="M287.816,119.184c-5.859-5.859-5.859-15.352,0-21.211l42.437-42.437      c5.859-5.859,15.352-5.859,21.211,0s5.859,15.352,0,21.211l-42.437,42.437C303.168,125.043,293.676,125.043,287.816,119.184z"/>
			</g>
		</g>
		<g>
			<g>
				<path style="fill:#F9BD13;" d="M160.536,246.464c-5.859-5.859-5.859-15.352,0-21.211l42.437-42.437      c5.859-5.859,15.352-5.859,21.211,0s5.859,15.352,0,21.211l-42.437,42.437C175.888,252.323,166.396,252.323,160.536,246.464z"/>
			</g>
		</g>
		<g>
			<path style="fill:#F9BD13;" d="M196,166h-60c-8.291,0-15-6.709-15-15s6.709-15,15-15h60c8.291,0,15,6.709,15,15     S204.291,166,196,166z"/>
		</g>
		<g>
			<g>
				<path style="fill:#F6901E;" d="M376,166h-60c-8.291,0-15-6.709-15-15s6.709-15,15-15h60c8.291,0,15,6.709,15,15      S384.291,166,376,166z"/>
			</g>
		</g>
		<path style="fill:#F6901E;" d="M256,106V16c8.401,0,15,6.599,15,15v60C271,99.399,264.401,106,256,106z"/>
		<path style="fill:#F6901E;" d="M256,286v-90c8.401,0,15,6.599,15,15v60C271,279.399,264.401,286,256,286z"/>
		<g>
			<g>
				<path style="fill:#FCD82D;" d="M256,76c-41.4,0-75,33.6-75,75s33.6,75,75,75s75-33.6,75-75S297.4,76,256,76z"/>
			</g>
		</g>
		<path style="fill:#F9BD13;" d="M331,151c0,41.4-33.6,75-75,75V76C297.4,76,331,109.6,331,151z"/>
	</g>
</g>















</svg>
