<?xml version="1.0" encoding="iso-8859-1"?>
<!-- Generator: Adobe Illustrator 21.0.0, SVG Export Plug-In . SVG Version: 6.00 Build 0)  -->
<svg xmlns="http://www.w3.org/2000/svg" xmlns:xlink="http://www.w3.org/1999/xlink" version="1.1" id="Capa_1" x="0px" y="0px" viewBox="0 0 512 512" style="enable-background:new 0 0 512 512;" xml:space="preserve" width="512" height="512">
<g>
	<g>
		<g>
			<path style="fill:#E0F3FC;" d="M497,0H15C6.599,0,0,6.599,0,15v138.699c0,12.001,4.799,23.101,13.2,31.8L26.499,197.8     C29.5,200.499,31,204.399,31,208.299v66.4c0,12.001,4.799,23.101,13.2,31.8L56.499,318.8C59.5,321.499,61,325.399,61,329.299V407     c0,24.899,20.099,45,45,45s45-20.101,45-45V269.299c0-3.9,1.5-7.8,4.501-10.499l20.999-21.301C179.5,234.8,181,230.9,181,227     v-24.701l4.501-4.499c5.7-5.7,15.298-5.7,20.999,0l4.501,4.499V227c0,3.9,1.5,7.8,4.501,10.499l20.999,21.301     c3.001,2.699,4.501,6.599,4.501,10.499V317c0,24.899,20.099,45,45,45s45-20.101,45-45v-17.701c0-3.9,1.5-7.8,4.501-10.499     l12.299-12.301c8.101-8.099,12.599-18.6,13.2-29.7V245.6c0-5.7,3.3-10.8,8.401-13.5c6.599-3.3,12.299-0.601,14.399,0.601     c2.1,1.5,7.2,5.4,7.2,12.9v29.099c0,12.001,4.799,23.101,13.2,31.8l12.299,12.301c3.001,2.699,4.501,6.599,4.501,10.499V377     c0,24.899,20.099,45,45,45s46-20.101,46-45V15C512,6.599,505.401,0,497,0z"/>
		</g>
	</g>
	<path style="fill:#BDD9F1;" d="M512,15v362c0,24.899-21.099,45-46,45s-45-20.101-45-45v-47.701c0-3.9-1.5-7.8-4.501-10.499   L404.2,306.499c-8.401-8.699-13.2-19.799-13.2-31.8V245.6c0-7.5-5.099-11.4-7.2-12.9c-2.1-1.201-7.8-3.9-14.399-0.601   C364.3,234.8,361,239.9,361,245.6v1.199c-0.601,11.1-5.099,21.601-13.2,29.7L335.501,288.8c-3.001,2.699-4.501,6.599-4.501,10.499   V317c0,24.899-20.099,45-45,45V0h211C505.401,0,512,6.599,512,15z"/>
	<g>
		<path style="fill:#76E2F8;" d="M325.901,446.3L298.9,399.5c-2.699-4.501-7.8-6.901-12.9-6.901s-10.201,2.401-12.9,6.901    l-27.599,47.699C242.5,453.5,241,460.099,241,467c0,24.899,20.099,45,45,45s45-20.101,45-45    C331,460.099,329.5,453.5,325.901,446.3z"/>
	</g>
	<g>
		<path style="fill:#BDD9F1;" d="M166,91h-30c-8.291,0-15-6.709-15-15s6.709-15,15-15h30c8.291,0,15,6.709,15,15S174.291,91,166,91z    "/>
	</g>
	<g>
		<g>
			<path style="fill:#BDD9F1;" d="M106,151H76c-8.291,0-15-6.709-15-15s6.709-15,15-15h30c8.291,0,15,6.709,15,15     S114.291,151,106,151z"/>
		</g>
	</g>
	<g>
		<g>
			<path style="fill:#99B9D9;" d="M436,121h-30c-8.291,0-15-6.709-15-15s6.709-15,15-15h30c8.291,0,15,6.709,15,15     S444.291,121,436,121z"/>
		</g>
	</g>
	<g>
		<g>
			<path style="fill:#99B9D9;" d="M346,91h-30c-8.291,0-15-6.709-15-15s6.709-15,15-15h30c8.291,0,15,6.709,15,15S354.291,91,346,91     z"/>
		</g>
	</g>
	<g>
		<g>
			<path style="fill:#BDD9F1;" d="M301,136c0,8.399-6.599,15-15,15h-30c-8.401,0-15-6.601-15-15c0-8.401,6.599-15,15-15h30     C294.401,121,301,127.599,301,136z"/>
		</g>
	</g>
	<path style="fill:#25D9F8;" d="M325.901,446.3c3.6,7.2,5.099,13.799,5.099,20.7c0,24.899-20.099,45-45,45V392.599   c5.099,0,10.201,2.401,12.9,6.901L325.901,446.3z"/>
	<path style="fill:#99B9D9;" d="M301,136c0,8.399-6.599,15-15,15v-30C294.401,121,301,127.599,301,136z"/>
</g>















</svg>
