<?xml version="1.0" encoding="iso-8859-1"?>
<!-- Generator: Adobe Illustrator 21.0.0, SVG Export Plug-In . SVG Version: 6.00 Build 0)  -->
<svg xmlns="http://www.w3.org/2000/svg" xmlns:xlink="http://www.w3.org/1999/xlink" version="1.1" id="Capa_1" x="0px" y="0px" viewBox="0 0 512 512" style="enable-background:new 0 0 512 512;" xml:space="preserve" width="512" height="512">
<g>
	<path style="fill:#E0F3FC;" d="M180.073,427.099V497c0,8.399-6.599,15-15,15h-120c-8.401,0-15-6.601-15-15v-69.901l75-50.099   L180.073,427.099z"/>
	<path style="fill:#BDD9F1;" d="M180.073,427.099V497c0,8.399-6.599,15-15,15h-60V377L180.073,427.099z"/>
	<path style="fill:#61729B;" d="M508.273,151l-20.099,17.399L498.373,181c-18.6,41.7-52.399,74.099-83.3,103.2   c-16.8,15.599-33.3,30.899-45.899,46.8l-39.6,18.6l20.099,11.4c-4.501,10.199-7.2,20.4-7.2,31.199   c0,59.399,6.899,43.001,18.3,101.8c1.201,5.4-0.899,10.801-4.799,14.401c-4.2,3.6-10.201,4.499-14.7,2.699   c-0.901-0.3-43.801-16-85.201-51.7c-43.801-37.2-86.1-97.8-76.8-188.399l24.901-12.301L182.573,241   c2.401-54.3-36.899-110.501-75-151l9.3-13.2L76.974,60c-22.202-20.101-39.001-32.401-39.6-32.701c-5.4-3.9-7.5-10.8-5.7-16.8   C33.774,4.2,39.474,0,46.073,0h420c5.4,0,10.499,2.999,12.9,7.5C511.674,64.799,516.972,112,508.273,151z"/>
	<path style="fill:#47568C;" d="M508.273,151l-20.099,17.399L498.373,181c-18.6,41.7-52.399,74.099-83.3,103.2   c-16.8,15.599-33.3,30.899-45.899,46.8l-39.6,18.6l20.099,11.4c-4.501,10.199-7.2,20.4-7.2,31.199   c0,59.399,6.899,43.001,18.3,101.8c1.201,5.4-0.899,10.801-4.799,14.401c-4.2,3.6-10.201,4.499-14.7,2.699   c-0.901-0.3-43.801-16-85.201-51.7V0h210c5.4,0,10.499,2.999,12.9,7.5C511.674,64.799,516.972,112,508.273,151z"/>
	<g>
		<path style="fill:#2C3B73;" d="M508.273,151c-2.1,10.499-5.7,20.4-9.901,30h-180.5c-8.101,0-15-6.601-15-15    c0-8.401,6.899-15,15-15H508.273z"/>
	</g>
	<g>
		<g>
			<path style="fill:#F16523;" d="M207.673,445.399c-4.499,6.601-13.799,8.701-21,4.2l-81.599-54.6l-81.599,54.6     c-6.901,4.501-16.201,2.701-21-4.2c-4.501-6.899-2.701-16.199,4.199-21l90-60c2.401-1.8,5.402-2.399,8.401-2.399     s6,0.599,8.401,2.399l90,60C210.373,429.2,212.173,438.5,207.673,445.399z"/>
		</g>
	</g>
	<g>
		<path style="fill:#F16523;" d="M120.073,467v45h-30v-45c0-8.401,6.599-15,15-15S120.073,458.599,120.073,467z"/>
	</g>
	<g>
		<g>
			<path style="fill:#2C3B73;" d="M369.174,331c-8.101,9.899-15,19.799-19.501,30h-93.6c-8.401,0-15-6.601-15-15     c0-8.401,6.599-15,15-15H369.174z"/>
		</g>
	</g>
	<g>
		<g>
			<path style="fill:#47568C;" d="M271.073,256c0,8.399-6.599,15-15,15h-76.8c0.3-5.7,1.199-11.4,2.1-17.401     c0.601-4.2,1.199-8.399,1.199-12.599h73.5C264.474,241,271.073,247.599,271.073,256z"/>
		</g>
	</g>
	<g>
		<g>
			<path style="fill:#47568C;" d="M211.073,75c0,8.399-6.599,15-15,15h-88.5c-10.499-11.1-21-21.301-30.599-30h119.099     C204.474,60,211.073,66.599,211.073,75z"/>
		</g>
	</g>
	<path style="fill:#EE3D23;" d="M120.073,467v45h-15v-60C113.474,452,120.073,458.599,120.073,467z"/>
	<path style="fill:#EE3D23;" d="M207.673,445.399c-4.499,6.601-13.799,8.701-21,4.2l-81.599-54.6V362c2.999,0,6,0.599,8.401,2.399   l90,60C210.373,429.2,212.173,438.5,207.673,445.399z"/>
</g>















</svg>
