<?xml version="1.0" encoding="iso-8859-1"?>
<!-- Generator: Adobe Illustrator 21.0.0, SVG Export Plug-In . SVG Version: 6.00 Build 0)  -->
<svg xmlns="http://www.w3.org/2000/svg" xmlns:xlink="http://www.w3.org/1999/xlink" version="1.1" id="Capa_1" x="0px" y="0px" viewBox="0 0 512 512" style="enable-background:new 0 0 512 512;" xml:space="preserve" width="512" height="512">
<g>
	<g>
		<g>
			<g>
				<path style="fill:#00C0F1;" d="M117.997,246.991c-4.98-6.621-3.633-16.025,3.003-20.991l72.012-53.994      c6.606-4.995,15.996-3.647,20.991,3.003c4.98,6.621,3.633,16.025-3.003,20.991l-72.012,53.994      C132.344,254.978,122.948,253.617,117.997,246.991z"/>
			</g>
		</g>
	</g>
	<g>
		<g>
			<g>
				<path style="fill:#00C0F1;" d="M312.455,226l-66.328-33.164c-7.412-3.706-10.415-12.715-6.709-20.127      c3.721-7.412,12.686-10.386,20.127-6.709l66.328,33.164c7.412,3.706,10.415,12.715,6.709,20.127      C328.896,226.642,319.942,229.718,312.455,226z"/>
			</g>
		</g>
	</g>
	<g>
		<g>
			<g>
				<path style="fill:#00C0F1;" d="M357.323,214.677c-5.859-5.859-5.859-15.352,0-21.211l77.86-76.86      c5.859-5.859,15.352-5.859,21.211,0s5.859,15.352,0,21.211l-77.86,76.86C372.675,220.536,363.183,220.536,357.323,214.677z"/>
			</g>
		</g>
	</g>
	<g>
		<path style="fill:#76E2F8;" d="M506.901,85.3L479.9,38.5c-2.699-4.501-7.8-6.901-12.9-6.901s-10.201,2.401-12.9,6.901    l-27.599,47.699C423.5,92.5,422,99.099,422,106c0,24.899,20.099,45,45,45s45-20.101,45-45C512,99.099,510.5,92.5,506.901,85.3z"/>
	</g>
	<g>
		<path style="fill:#9BFCFF;" d="M385.901,205.3L358.9,158.5c-2.699-4.501-7.8-6.901-12.9-6.901s-10.201,2.401-12.9,6.901    l-27.599,47.699C302.5,212.5,301,219.099,301,226c0,24.899,20.099,45,45,45s45-20.101,45-45    C391,219.099,389.5,212.5,385.901,205.3z"/>
	</g>
	<g>
		<path style="fill:#9BFCFF;" d="M145.901,235.3L118.9,188.5c-2.699-4.501-7.8-6.901-12.9-6.901s-10.201,2.401-12.9,6.901    l-27.599,47.699C62.5,242.5,61,249.099,61,256c0,24.899,20.099,45,45,45s45-20.101,45-45C151,249.099,149.5,242.5,145.901,235.3z"/>
	</g>
	<g>
		<path style="fill:#76E2F8;" d="M265.901,145.3L238.9,98.5c-2.699-4.501-7.8-6.901-12.9-6.901s-10.201,2.401-12.9,6.901    l-27.599,47.699C182.5,152.5,181,159.099,181,166c0,24.899,20.099,45,45,45s45-20.101,45-45    C271,159.099,269.5,152.5,265.901,145.3z"/>
	</g>
	<path style="fill:#9BFCFF;" d="M391,316v174.399h-90V316c0-8.401,6.599-15,15-15h60C384.401,301,391,307.599,391,316z"/>
	<path style="fill:#76E2F8;" d="M271,256v234.399h-90V256c0-8.401,6.599-15,15-15h60C264.401,241,271,247.599,271,256z"/>
	<path style="fill:#9BFCFF;" d="M151,346v144.399H61V346c0-8.401,6.599-15,15-15h60C144.401,331,151,337.599,151,346z"/>
	<path style="fill:#76E2F8;" d="M512,196v286l-36.599,21.599L467,500.3L422,482V196c0-8.401,6.599-15,15-15h60   C505.401,181,512,187.599,512,196z"/>
	<path style="fill:#25D9F8;" d="M467,151V31.599c5.099,0,10.201,2.401,12.9,6.901l27.001,46.8C510.5,92.5,512,99.099,512,106   C512,130.899,491.901,151,467,151z"/>
	<path style="fill:#25D9F8;" d="M512,196v286l-36.599,21.599L467,500.3V181h30C505.401,181,512,187.599,512,196z"/>
	<path style="fill:#76E2F8;" d="M346,271V151.599c5.099,0,10.201,2.401,12.9,6.901l27.001,46.8c3.6,7.2,5.099,13.799,5.099,20.7   C391,250.899,370.901,271,346,271z"/>
	<path style="fill:#76E2F8;" d="M391,316v174.399h-45V301h30C384.401,301,391,307.599,391,316z"/>
	<path style="fill:#25D9F8;" d="M226,211V91.599c5.099,0,10.201,2.401,12.9,6.901l27.001,46.8c3.6,7.2,5.099,13.799,5.099,20.7   C271,190.899,250.901,211,226,211z"/>
	<path style="fill:#25D9F8;" d="M271,256v234.399h-45V241h30C264.401,241,271,247.599,271,256z"/>
	<path style="fill:#76E2F8;" d="M106,301V181.599c5.099,0,10.201,2.401,12.9,6.901l27.001,46.8c3.6,7.2,5.099,13.799,5.099,20.7   C151,280.899,130.901,301,106,301z"/>
	<path style="fill:#76E2F8;" d="M151,346v144.399h-45V331h30C144.401,331,151,337.599,151,346z"/>
	<path style="fill:#48578C;" d="M30,482V15c0-8.401-6.599-15-15-15S0,6.599,0,15v482c0,8.399,6.599,15,15,15h482   c8.401,0,15-6.601,15-15v-15H30z"/>
</g>















</svg>
