<?xml version="1.0" encoding="iso-8859-1"?>
<!-- Generator: Adobe Illustrator 21.0.0, SVG Export Plug-In . SVG Version: 6.00 Build 0)  -->
<svg xmlns="http://www.w3.org/2000/svg" xmlns:xlink="http://www.w3.org/1999/xlink" version="1.1" id="Capa_1" x="0px" y="0px" viewBox="0 0 512 512" style="enable-background:new 0 0 512 512;" xml:space="preserve" width="512" height="512">
<g>
	<path style="fill:#EE3D23;" d="M301.002,346v142.899h-30V346c0-8.401,6.599-15,15-15S301.002,337.599,301.002,346z"/>
	<g>
		<path style="fill:#F16523;" d="M331.002,497c0,8.399-6.599,15-15,15h-60c-8.401,0-15-6.601-15-15c0-8.401,6.599-15,15-15h60    C324.403,482,331.002,488.599,331.002,497z"/>
	</g>
	<path style="fill:#CC2027;" d="M301.002,346v142.899h-15V331C294.403,331,301.002,337.599,301.002,346z"/>
	<g>
		<path style="fill:#CD0000;" d="M436.002,151h-30c-8.291,0-15-6.709-15-15s6.709-15,15-15h30c8.291,0,15,6.709,15,15    S444.293,151,436.002,151z"/>
	</g>
	<path style="fill:#CD0000;" d="M446.608,35.395c-5.859-5.859-15.352-5.859-21.211,0l-34.395,34.395V15c0-8.291-6.709-15-15-15   s-15,6.709-15,15v54.789l-34.395-34.395c-5.859-5.859-15.352-5.859-21.211,0s-5.859,15.352,0,21.211l38.789,38.789h63.633   l38.789-38.789C452.467,50.746,452.467,41.254,446.608,35.395z"/>
	<path style="fill:#EE3D23;" d="M421.002,211V106c0-12.001-4.501-22.8-13.5-32.1c-17.699-16.8-45-17.401-63.6,0.601   c-8.399,8.699-12.9,19.499-12.9,31.5v135h53.313L421.002,211z"/>
	<path style="fill:#EE3D23;" d="M106.002,91h-30c-8.291,0-15,6.709-15,15v45c1.463,2.049,20.301,18.177,34.237,30l44.116-10.589   l40.596,60.798l0,0L193.975,241h32.027c8.291,0,15-6.709,15-15C241.002,151.557,180.445,91,106.002,91z"/>
	<path style="fill:#FDBF00;" d="M151.002,211l28.949,20.209c0.61-1.635,1.051-3.36,1.051-5.209c0-41.353-33.647-75-75-75h-45v45   c0,8.284,6.716,15,15,15H151.002z"/>
	<path style="fill:#F16523;" d="M421.002,211v15.899c0,0.901-0.3,1.8-0.3,2.401c-0.899,34.501-14.399,67.2-39,92.1   c-22.5,21.899-50.4,35.4-80.7,38.699c-4.799,0.601-9.901,0.901-15,0.901s-10.201-0.3-15-0.901c-67.5-7.5-120-64.799-120-134.099   v-15h61.5l29.101,21.599c1.5,9.3,5.7,18.3,12.599,24.901c8.399,8.699,19.799,13.5,31.8,13.5c18.6,0,34.2-11.1,41.1-27.001   l33.9-32.999H421.002z"/>
	<path style="fill:#EE3D23;" d="M421.002,211v15.899c0,0.901-0.3,1.8-0.3,2.401c-0.899,34.501-14.399,67.2-39,92.1   c-22.5,21.899-50.4,35.4-80.7,38.699c-4.799,0.601-9.901,0.901-15,0.901v-90c18.6,0,34.2-11.1,41.1-27.001l33.9-32.999H421.002z"/>
	<g>
		<g>
			<path style="fill:#FDBF00;" d="M286.002,211c-64.799,0-73.5,0-73.5,0c-5.099,25.8,3.001,50.7,20.4,67.8     c14.101,14.399,33.001,22.2,53.101,22.2c41.4,0,75-33.6,75-75v-15H286.002z"/>
		</g>
	</g>
	<g>
		<g>
			<g>
				<path style="fill:#FF9100;" d="M406.002,481c-3.838,0-7.676-1.465-10.605-4.395c-5.859-5.859-5.859-15.352,0-21.211L444.791,406      l-49.395-49.395c-5.859-5.859-5.859-15.352,0-21.211s15.352-5.859,21.211,0l60,60c5.859,5.859,5.859,15.352,0,21.211l-60,60      C413.678,479.535,409.84,481,406.002,481z"/>
			</g>
		</g>
	</g>
	<path style="fill:#F16523;" d="M179.42,399.291l-30-60c-2.549-5.083-7.734-8.291-13.418-8.291h-90c-5.2,0-10.02,2.695-12.759,7.119   s-2.988,9.946-0.659,14.59L59.23,406l-26.646,53.291c-2.329,4.644-2.08,10.166,0.659,14.59S40.802,481,46.002,481h90   c5.684,0,10.869-3.208,13.418-8.291l30-60C181.199,409.152,181.348,403.146,179.42,399.291z"/>
	<path style="fill:#FDBF00;" d="M451.603,391v30H46.002c-8.401,0-15-6.601-15-15c0-8.401,6.599-15,15-15H451.603z"/>
	<path style="fill:#FF9100;" d="M286.002,301v-90h75v15C361.002,267.4,327.402,301,286.002,301z"/>
	<rect x="286.002" y="391" style="fill:#FF9100;" width="165.601" height="30"/>
	<path style="fill:#EE3D23;" d="M331.002,497c0,8.399-6.599,15-15,15h-30v-30h30C324.403,482,331.002,488.599,331.002,497z"/>
</g>















</svg>
