<?xml version="1.0" encoding="iso-8859-1"?>
<!-- Generator: Adobe Illustrator 21.0.0, SVG Export Plug-In . SVG Version: 6.00 Build 0)  -->
<svg xmlns="http://www.w3.org/2000/svg" xmlns:xlink="http://www.w3.org/1999/xlink" version="1.1" id="Capa_1" x="0px" y="0px" viewBox="0 0 512 512" style="enable-background:new 0 0 512 512;" xml:space="preserve" width="512" height="512">
<g>
	<path style="fill:#F9BD13;" d="M316,91c-30.366,0-57.539,18.105-69.229,46.128c-3.193,7.646,0.425,16.421,8.071,19.614   l98.936,58.213c6.501,5.153,15.947,4.025,21.064-2.461C385.258,199.325,391,182.816,391,166C391,124.647,357.353,91,316,91z"/>
	<g>
		<g>
			<path style="fill:#F9BD13;" d="M316,60c-8.291,0-15-6.709-15-15V15c0-8.291,6.709-15,15-15s15,6.709,15,15v30     C331,53.291,324.291,60,316,60z"/>
		</g>
	</g>
	<g>
		<g>
			<path style="fill:#F9BD13;" d="M466,181h-30c-8.291,0-15-6.709-15-15s6.709-15,15-15h30c8.291,0,15,6.709,15,15     S474.291,181,466,181z"/>
		</g>
	</g>
	<g>
		<g>
			<path style="fill:#F9BD13;" d="M400.858,96.142c-3.838,0-7.676-1.465-10.605-4.395c-5.859-5.859-5.859-15.352,0-21.211     l21.211-21.211c5.859-5.859,15.352-5.859,21.211,0s5.859,15.352,0,21.211l-21.211,21.211     C408.534,94.677,404.696,96.142,400.858,96.142z"/>
		</g>
	</g>
	<g>
		<g>
			<path style="fill:#F9BD13;" d="M231.142,96.142c-3.838,0-7.676-1.465-10.605-4.395l-21.211-21.211     c-5.859-5.859-5.859-15.352,0-21.211s15.352-5.859,21.211,0l21.211,21.211c5.859,5.859,5.859,15.352,0,21.211     C238.817,94.677,234.979,96.142,231.142,96.142z"/>
		</g>
	</g>
	<g>
		<path style="fill:#E0F3FC;" d="M331,181c-3.3,0-6.599,0.3-9.901,0.601C303.999,144.699,267.4,121,226,121    s-77.999,23.699-95.099,60.601C127.599,181.3,124.3,181,121,181c-49.501,0-90,40.499-90,90s40.499,90,90,90h210    c49.501,0,90-40.499,90-90S380.501,181,331,181z"/>
	</g>
	<path style="fill:#BDD9F1;" d="M421,271c0,49.501-40.499,90-90,90H226V121c41.4,0,77.999,23.699,95.099,60.601   C324.401,181.3,327.7,181,331,181C380.501,181,421,221.499,421,271z"/>
	<g>
		<g>
			<path style="fill:#FCD82D;" d="M329.2,338.5c-2.701-4.501-7.8-7.5-13.2-7.5h-75v-75c0-6.599-4.501-12.599-11.1-14.399     c-1.199-0.3-2.701-0.601-3.9-0.601c-5.099,0-9.901,2.701-12.9,7.2l-90,150c-2.701,4.801-2.701,10.501-0.3,15.3     c2.701,4.501,7.8,7.5,13.2,7.5h75v76c0,8.401,6.599,15,15,15c5.099,0,10.201-2.701,12.9-7.2l90-151     C331.601,348.999,331.601,343.299,329.2,338.5z"/>
		</g>
	</g>
	<path style="fill:#F9BD13;" d="M328.9,353.8l-90,151c-2.699,4.499-7.8,7.2-12.9,7.2V241c1.199,0,2.701,0.3,3.9,0.601   c6.599,1.8,11.1,7.8,11.1,14.399v75h75c5.4,0,10.499,2.999,13.2,7.5C331.601,343.299,331.601,348.999,328.9,353.8z"/>
</g>















</svg>
