<?xml version="1.0" encoding="iso-8859-1"?>
<!-- Generator: Adobe Illustrator 21.0.0, SVG Export Plug-In . SVG Version: 6.00 Build 0)  -->
<svg xmlns="http://www.w3.org/2000/svg" xmlns:xlink="http://www.w3.org/1999/xlink" version="1.1" id="Capa_1" x="0px" y="0px" viewBox="0 0 512 512" style="enable-background:new 0 0 512 512;" xml:space="preserve" width="512" height="512">
<g>
	<g>
		<g>
			<path style="fill:#E0F3FC;" d="M359.2,104.799C389.5,58.9,441.501,30,497,30c8.401,0,15-6.601,15-15c0-8.401-6.599-15-15-15H316     c-20.7,0-40.8,2.699-60,8.099c-69.6,19.2-126.899,72.4-151.8,142C61,119.5,30,68.399,30,15c0-8.101-6.601-15-15-15     C6.599,0,0,6.899,0,15v181c0,92.999,63.1,176.7,148.9,209.7C118.001,447.999,67.5,482,15,482c-8.101,0-15,6.599-15,15     c0,8.099,6.899,15,15,15h181c20.7,0,40.8-3.001,60-8.401c67.5-18.9,123.6-77.199,149.399-143.2C450.099,391,482,442.4,482,497     c0,8.399,6.599,15,15,15c8.101,0,15-6.601,15-15V316C512,220.899,447.1,136.599,359.2,104.799z"/>
		</g>
	</g>
	<path style="fill:#BDD9F1;" d="M512,316v181c0,8.399-6.899,15-15,15c-8.401,0-15-6.601-15-15c0-54.6-31.901-106-76.601-136.601   c-25.8,66-81.899,124.3-149.399,143.2V8.099C275.2,2.699,295.3,0,316,0h181c8.401,0,15,6.599,15,15c0,8.399-6.599,15-15,15   c-55.499,0-107.5,28.9-137.8,74.799C447.1,136.599,512,220.899,512,316z"/>
	<g>
		<g>
			<path style="fill:#BDD9F1;" d="M256,181c-41.4,0-75,33.6-75,75s33.6,75,75,75s75-33.6,75-75S297.4,181,256,181z"/>
		</g>
	</g>
	<path style="fill:#99B9D9;" d="M331,256c0,41.4-33.6,75-75,75V181C297.4,181,331,214.6,331,256z"/>
</g>















</svg>
