<?xml version="1.0" encoding="iso-8859-1"?>
<!-- Generator: Adobe Illustrator 21.0.0, SVG Export Plug-In . SVG Version: 6.00 Build 0)  -->
<svg xmlns="http://www.w3.org/2000/svg" xmlns:xlink="http://www.w3.org/1999/xlink" version="1.1" id="Capa_1" x="0px" y="0px" viewBox="0 0 512.002 512.002" style="enable-background:new 0 0 512.002 512.002;" xml:space="preserve" width="512" height="512">
<g>
	<path style="fill:#F9BD13;" d="M316.016,91c-30.366,0-57.539,18.105-69.229,46.128c-3.193,7.646,0.425,16.421,8.071,19.614   l98.936,58.213c6.501,5.153,15.947,4.025,21.064-2.461c10.415-13.169,16.157-29.678,16.157-46.494   C391.016,124.647,357.369,91,316.016,91z"/>
	<g>
		<g>
			<path style="fill:#F9BD13;" d="M316.016,60c-8.291,0-15-6.709-15-15V15c0-8.291,6.709-15,15-15s15,6.709,15,15v30     C331.016,53.291,324.307,60,316.016,60z"/>
		</g>
	</g>
	<g>
		<g>
			<path style="fill:#F9BD13;" d="M466.016,181h-30c-8.291,0-15-6.709-15-15s6.709-15,15-15h30c8.291,0,15,6.709,15,15     S474.307,181,466.016,181z"/>
		</g>
	</g>
	<g>
		<g>
			<path style="fill:#F9BD13;" d="M400.875,96.142c-3.838,0-7.676-1.465-10.605-4.395c-5.859-5.859-5.859-15.352,0-21.211     l21.211-21.211c5.859-5.859,15.352-5.859,21.211,0s5.859,15.352,0,21.211L411.48,91.747     C408.55,94.677,404.713,96.142,400.875,96.142z"/>
		</g>
	</g>
	<g>
		<g>
			<path style="fill:#F9BD13;" d="M231.158,96.142c-3.838,0-7.676-1.465-10.605-4.395l-21.211-21.211     c-5.859-5.859-5.859-15.352,0-21.211s15.352-5.859,21.211,0l21.211,21.211c5.859,5.859,5.859,15.352,0,21.211     C238.834,94.677,234.996,96.142,231.158,96.142z"/>
		</g>
	</g>
	<g>
		<path style="fill:#E0F3FC;" d="M331.016,181c-3.3,0-6.599,0.3-9.901,0.601C304.016,144.699,267.416,121,226.016,121    s-77.999,23.699-95.099,60.601c-52.5-5.7-99.901,36.599-99.901,89.399c0,49.501,40.499,90,90,90h210c49.501,0,90-40.499,90-90    S380.517,181,331.016,181z"/>
	</g>
	<g>
		
			<ellipse transform="matrix(0.8444 -0.5357 0.5357 0.8444 -259.0851 101.9627)" style="fill:#76E2F8;" cx="45.988" cy="497" rx="15" ry="15"/>
	</g>
	<g>
		
			<ellipse transform="matrix(0.8444 -0.5357 0.5357 0.8444 -240.4145 166.246)" style="fill:#76E2F8;" cx="165.988" cy="497" rx="15" ry="15"/>
	</g>
	<g>
		<g>
			
				<ellipse transform="matrix(0.8444 -0.5357 0.5357 0.8444 -221.7439 230.5294)" style="fill:#25D9F8;" cx="285.988" cy="497" rx="15" ry="15"/>
		</g>
	</g>
	<g>
		
			<ellipse transform="matrix(0.8444 -0.5357 0.5357 0.8444 -225.6436 127.1029)" style="fill:#76E2F8;" cx="105.988" cy="452" rx="15" ry="15"/>
	</g>
	<path style="fill:#76E2F8;" d="M234.117,464.599c-2.701,1.5-5.4,2.401-8.101,2.401c-5.099,0-9.901-2.401-12.599-6.899   c-4.501-7.2-2.401-16.201,4.499-20.7c2.401-1.5,5.4-2.401,8.101-2.401c4.799,0,9.6,2.401,12.599,6.899   C243.116,451.099,241.016,460.101,234.117,464.599z"/>
	<g>
		<g>
			
				<ellipse transform="matrix(0.8444 -0.5357 0.5357 0.8444 -188.3024 255.6696)" style="fill:#25D9F8;" cx="345.988" cy="452" rx="15" ry="15"/>
		</g>
	</g>
	<g>
		<g>
			
				<ellipse transform="matrix(0.8444 -0.5357 0.5357 0.8444 -203.0733 294.8127)" style="fill:#25D9F8;" cx="405.988" cy="497" rx="15" ry="15"/>
		</g>
	</g>
	<g>
		
			<ellipse transform="matrix(0.8444 -0.5357 0.5357 0.8444 -210.8726 87.9597)" style="fill:#76E2F8;" cx="45.988" cy="407" rx="15" ry="15"/>
	</g>
	<g>
		
			<ellipse transform="matrix(0.8444 -0.5357 0.5357 0.8444 -192.202 152.2431)" style="fill:#76E2F8;" cx="165.988" cy="407" rx="15" ry="15"/>
	</g>
	<g>
		<g>
			
				<ellipse transform="matrix(0.8444 -0.5357 0.5357 0.8444 -173.5314 216.5264)" style="fill:#25D9F8;" cx="285.988" cy="407" rx="15" ry="15"/>
		</g>
	</g>
	<g>
		<g>
			
				<ellipse transform="matrix(0.8444 -0.5357 0.5357 0.8444 -154.8608 280.8098)" style="fill:#25D9F8;" cx="405.988" cy="407" rx="15" ry="15"/>
		</g>
	</g>
	<path style="fill:#25D9F8;" d="M238.616,443.899c4.501,7.2,2.401,16.201-4.499,20.7c-2.701,1.5-5.4,2.401-8.101,2.401v-30   C230.815,437,235.616,439.401,238.616,443.899z"/>
	<path style="fill:#BDD9F1;" d="M421.016,271c0,49.501-40.499,90-90,90h-105V121c41.4,0,77.999,23.699,95.099,60.601   c3.301-0.3,6.601-0.601,9.901-0.601C380.517,181,421.016,221.499,421.016,271z"/>
</g>















</svg>
