<?xml version="1.0" encoding="iso-8859-1"?>
<!-- Generator: Adobe Illustrator 21.0.0, SVG Export Plug-In . SVG Version: 6.00 Build 0)  -->
<svg xmlns="http://www.w3.org/2000/svg" xmlns:xlink="http://www.w3.org/1999/xlink" version="1.1" id="Capa_1" x="0px" y="0px" viewBox="0 0 512 512" style="enable-background:new 0 0 512 512;" xml:space="preserve" width="512" height="512">
<g>
	<polygon style="fill:#BDD9F1;" points="203.899,302.199 187.7,327.7 49.501,233.8 49.501,188.2 187.7,64.3 195.5,96.4 69,211  "/>
	<polygon style="fill:#99B9D9;" points="69,211 203.899,302.199 187.7,327.7 49.501,233.8 49.501,211  "/>
	<path style="fill:#48578C;" d="M60,75v416.3H30V75c0-8.401,6.599-15,15-15S60,66.599,60,75z"/>
	<path style="fill:#2A3C74;" d="M60,75v416.3H45V60C53.401,60,60,66.599,60,75z"/>
	<path style="fill:#F16523;" d="M272.3,211c0.899,29.399,7.2,57.599,18.9,82.2l-19.2,29.7L198.8,331H197   c-5.4,0-10.499-3.001-13.2-7.8c-1.199-1.8-27.599-50.099-31.199-112.2c-0.3-4.801-0.601-9.901-0.601-15   c0-69.3,30.601-125.101,31.8-127.2c3.3-6,9.901-9.001,16.5-7.5L275.9,78.1l15.601,35.999C278.899,140.2,272,170.799,272,203.5   C272,205.899,272,208.599,272.3,211z"/>
	<path style="fill:#EE3D23;" d="M291.2,293.2l-19.2,29.7L198.8,331H197c-5.4,0-10.499-3.001-13.2-7.8   c-1.199-1.8-27.599-50.099-31.199-112.2h119.7C273.199,240.399,279.5,268.599,291.2,293.2z"/>
	<path style="fill:#E0F3FC;" d="M374.9,277.299l-17.401,36c-17.399,2.1-69.3,7.8-85.499,9.6l-4.799-9.3   c-15.3-30.601-24.001-65.7-24.901-102.599c-0.3-2.401-0.3-5.101-0.3-7.5c0-42.601,9.901-82.5,28.801-115.8l5.099-9.6l11.1,2.399   l69.3,15.3l-0.3,0.3c0,0,9.6,24.3,16.201,40.201C365.6,157.299,362,180.099,362,203.5c0,2.399,0,5.099,0.3,7.5   C362.901,234.099,367.4,256.599,374.9,277.299z"/>
	<path style="fill:#BDD9F1;" d="M362.3,211c0.601,23.099,5.099,45.599,12.599,66.299l-17.401,36c-17.399,2.1-69.3,7.8-85.499,9.6   l-4.799-9.3c-15.3-30.601-24.001-65.7-24.901-102.599H362.3z"/>
	<path style="fill:#F16523;" d="M434.599,211l33.9,90l-111,12.299c-16.199-31.5-24.3-67.2-25.199-102.299   c-0.3-2.401-0.3-5.101-0.3-7.5c0-37.2,7.8-74.7,24-107.401l14.7,3.3h0.3L473,121.599c0.599,0.3,0.899,0.3,1.5,0.3l-40.8,86.4   L434.599,211z"/>
	<path style="fill:#EE3D23;" d="M468.5,301l-111,12.299c-16.199-31.5-24.3-67.2-25.199-102.299h102.299L468.5,301z"/>
	<g>
		<path style="fill:#62729A;" d="M90,497c0,8.399-6.599,15-15,15H15c-8.401,0-15-6.601-15-15c0-8.401,6.599-15,15-15h60    C83.401,482,90,488.599,90,497z"/>
	</g>
	<path style="fill:#48578C;" d="M90,497c0,8.399-6.599,15-15,15H45v-30h30C83.401,482,90,488.599,90,497z"/>
	<g>
		<g>
			<path style="fill:#FCD82D;" d="M45,0C20.099,0,0,20.099,0,45c0,24.899,20.099,45,45,45s45-20.101,45-45C90,20.099,69.901,0,45,0z     "/>
		</g>
	</g>
	<path style="fill:#F9BD13;" d="M45,90V0c24.901,0,45,20.099,45,45C90,69.899,69.901,90,45,90z"/>
	<g>
		<g>
			<path style="fill:#BDD9F1;" d="M474.5,121.899c-1.5-0.3-6-0.899-7.5-0.899c-30.901,0-45,46.8-45,90s14.099,90,45,90h3.3     c28.5-3.3,41.7-48.9,41.7-90C512,170.799,499.999,127.599,474.5,121.899z"/>
		</g>
	</g>
	<path style="fill:#99B9D9;" d="M512,211c0,41.1-13.2,86.7-41.7,90H467c-30.901,0-45-46.8-45-90H512z"/>
</g>















</svg>
