<?xml version="1.0" encoding="iso-8859-1"?>
<!-- Generator: Adobe Illustrator 21.0.0, SVG Export Plug-In . SVG Version: 6.00 Build 0)  -->
<svg xmlns="http://www.w3.org/2000/svg" xmlns:xlink="http://www.w3.org/1999/xlink" version="1.1" id="Capa_1" x="0px" y="0px" viewBox="0 0 512 512" style="enable-background:new 0 0 512 512;" xml:space="preserve" width="512" height="512">
<g>
	<path style="fill:#F16523;" d="M512,15v45l-41.4,30H467c-123.6,0-232.301,78.699-271,195.399c-0.901,2.1-1.8,4.2-2.401,6.601   c-1.8,5.099-6,9.3-11.699,10.199c-27.001,5.4-49.2,24.6-57.301,50.7c-1.199,3.9-3.9,7.2-7.5,9c-2.1,0.901-4.501,1.5-6.899,1.5   c-1.5,0-3.3-0.298-4.801-0.899c-4.199,0-7.2-1.5-10.199-4.501c-2.701-3.3-3.3-7.2-3.001-11.4C99.101,257.5,137.5,176.4,196,115.8   C264.699,44.399,362,0,467,0h30C505.401,0,512,6.599,512,15z"/>
	<path style="fill:#EE3D23;" d="M512,15v45l-41.4,30H467c-123.6,0-232.301,78.699-271,195.399V115.8C264.699,44.399,362,0,467,0h30   C505.401,0,512,6.599,512,15z"/>
	<path style="fill:#FCD82D;" d="M512,60v60l-35.099,30H467c-95.7,0-182.199,61.599-213.701,151.899c-1.5,4.2-4.499,7.8-8.699,9.3   c-1.8,0.601-3.6,0.901-5.4,0.901c-2.401,0-5.099-0.601-7.2-1.8c-11.1-6-23.401-9-36-9.3c-4.799,0-9.6,0.3-14.399,1.199   C176.499,303.1,171.4,301.3,167.8,297.4c-3.3-3.9-4.501-9.3-2.999-14.401c7.798-24.899,18.3-49.3,31.199-70.899   C251.8,118.799,353.899,60,467,60H512z"/>
	<path style="fill:#F9BD13;" d="M512,60v60l-35.099,30H467c-95.7,0-182.199,61.599-213.701,151.899c-1.5,4.2-4.499,7.8-8.699,9.3   c-1.8,0.601-3.6,0.901-5.4,0.901c-2.401,0-5.099-0.601-7.2-1.8c-11.1-6-23.401-9-36-9.3v-88.9C251.8,118.799,353.899,60,467,60H512   z"/>
	<path style="fill:#25D9F8;" d="M467,120c-108.6,0-206.201,69.699-241.901,172.299C222.7,299.2,225.7,306.7,232,310.3   c15.599,8.099,27.299,21.599,33.6,38.099c0,0.3,0.3,0.901,0.3,1.201c0.599,0.899,1.199,2.1,1.5,3.3   c2.1,6.301,8.101,10.499,14.399,10.499c1.201,0,2.701-0.298,4.2-0.599c0.901-9,1.5-15.601,2.401-15.601   C302.5,259.6,378.199,195,467,195h45v-75H467z"/>
	<g>
		<g>
			<path style="fill:#E0F3FC;" d="M301,331c-3.6,0-6.899,0.3-9.901,0.599c-9.3-20.4-24.899-36.899-44.7-47.699     c-15.3-8.401-32.401-12.599-50.4-12.599h-0.3c-6.599,0-12.9,0.298-19.2,1.5c-33.9,6.299-61.8,28.5-75.899,58.799     C97.599,331.3,94.3,331,91,331c-49.501,0-91,41.499-91,91c0,49.499,41.499,90,91,90h210c49.501,0,90-40.501,90-90     C391,372.499,350.501,331,301,331z"/>
		</g>
	</g>
	<path style="fill:#BDD9F1;" d="M391,422c0,49.499-40.499,90-90,90H196V271.3c17.999,0,35.099,4.199,50.4,12.599   c19.801,10.8,35.4,27.299,44.7,47.699C294.101,331.3,297.4,331,301,331C350.501,331,391,372.499,391,422z"/>
</g>















</svg>
