<?xml version="1.0" encoding="iso-8859-1"?>
<!-- Generator: Adobe Illustrator 21.0.0, SVG Export Plug-In . SVG Version: 6.00 Build 0)  -->
<svg xmlns="http://www.w3.org/2000/svg" xmlns:xlink="http://www.w3.org/1999/xlink" version="1.1" id="Capa_1" x="0px" y="0px" viewBox="0 0 512 512" style="enable-background:new 0 0 512 512;" xml:space="preserve" width="512" height="512">
<g>
	<g>
		<g>
			<path style="fill:#E0F3FC;" d="M256,0C115.3,0,0,115.3,0,256s115.3,256,256,256s256-115.3,256-256S396.7,0,256,0z"/>
		</g>
	</g>
	<path style="fill:#BDD9F1;" d="M512,256c0,140.7-115.3,256-256,256V0C396.7,0,512,115.3,512,256z"/>
	<path style="fill:#76E2F8;" d="M151,121c-24.814,0-45,20.186-45,45s20.186,45,45,45s45-20.186,45-45S175.814,121,151,121z M151,181   c-8.276,0-15-6.724-15-15s6.724-15,15-15s15,6.724,15,15S159.276,181,151,181z"/>
	<g>
		<path style="fill:#76E2F8;" d="M406,136v30c0,8.399-6.599,15-15,15H286v60h75c8.401,0,15,6.599,15,15v30c0,8.399-6.599,15-15,15    h-75v105c0,8.399-6.599,15-15,15h-30c-8.401,0-15-6.601-15-15V151c0-16.5,13.5-30,30-30h135C399.401,121,406,127.599,406,136z"/>
	</g>
	<path style="fill:#25D9F8;" d="M406,136v30c0,8.399-6.599,15-15,15H286v60h75c8.401,0,15,6.599,15,15v30c0,8.399-6.599,15-15,15   h-75v105c0,8.399-6.599,15-15,15h-15V121h135C399.401,121,406,127.599,406,136z"/>
</g>















</svg>
