<?xml version="1.0" encoding="iso-8859-1"?>
<!-- Generator: Adobe Illustrator 21.0.0, SVG Export Plug-In . SVG Version: 6.00 Build 0)  -->
<svg xmlns="http://www.w3.org/2000/svg" xmlns:xlink="http://www.w3.org/1999/xlink" version="1.1" id="Capa_1" x="0px" y="0px" viewBox="0 0 512 512" style="enable-background:new 0 0 512 512;" xml:space="preserve" width="512" height="512">
<g>
	<path style="fill:#76E2F8;" d="M374.599,39.399L366.501,477.1c-0.3,5.7-3.9,12.1-9.3,14.5C325.699,505.099,290.799,512,256,512   c-22.8,0-45.3-4.001-66.301-9.701L167.8,463.599l-46.8,8.699C48.999,427,0,347.199,0,256c0-63.6,24.401-121.8,63.701-166.8   c0,0,113.099,3.9,113.699,3.9c0.899,0,66.301-92.8,66.301-92.8C247.899,0,251.8,0,256,0c38.101,0,76,9.099,110.2,25.6   C371.6,27.999,374.9,33.399,374.599,39.399z"/>
	<path style="fill:#25D9F8;" d="M374.599,39.399L366.501,477.1c-0.3,5.7-3.9,12.1-9.3,14.5C325.699,505.099,290.799,512,256,512V0   c38.101,0,76,9.099,110.2,25.6C371.6,27.999,374.9,33.399,374.599,39.399z"/>
	<path style="fill:#5BC980;" d="M289.9,371.499l-20.4,41.1c-1.5,3.001-3.9,5.4-6.901,6.901L256,422.8l-42.299,21   c-3.301,1.8-6,4.799-7.202,8.399l-16.8,50.099c-22.798-7.2-41.1-13.2-65.7-28.2c-1.199-0.599-2.098-1.199-2.999-1.8v-114   c0-11.7,4.799-23.399,13.2-31.5l32.401-32.701l-56.1-13.799C81.4,272.8,61,246.7,61,216.7c0-17.1,6.899-33.9,19.2-45.901   C88.599,162.4,92.8,151,91.901,139.3C91,127.599,85.3,116.8,75.7,109.6l-5.7-4.2c-3.3-2.699-5.4-6.599-5.7-10.8l-0.599-5.4   c46.8-60,113.099-79.6,177.9-88.9h2.1l4.499,8.099c3.001,5.101,2.701,11.4-0.601,16.201l-2.098,2.999   c-17.701,26.7-14.101,62.5,8.699,85.6c0.601,0.601,1.5,1.5,1.8,2.1c9.901,10.199,15,24,15,38.399c0,15-5.7,28.2-15,38.401   c-10.499,11.7-25.499,18.9-42.299,18.9h-5.402c-15,0-27.299,12.299-27.299,27.299c0,7.2,2.999,14.401,7.8,19.501l17.699,17.699   c6.901,6.901,16.501,9.6,26.1,7.202c8.101-2.1,15.901-1.802,23.401,0.599c11.4,3.3,21.301,11.1,27.001,22.5l6.899,14.7   C298.001,336.7,298.001,355.3,289.9,371.499z"/>
	<path style="fill:#00AB5E;" d="M289.9,371.499l-20.4,41.1c-1.5,3.001-3.9,5.4-6.901,6.901L256,422.8V283.299   c11.4,3.3,21.301,11.1,27.001,22.5l6.899,14.7C298.001,336.7,298.001,355.3,289.9,371.499z"/>
	<path style="fill:#E0F3FC;" d="M512,406c0,31.199-13.801,60.3-37.5,80.4C455.6,502.299,431.901,512,407,512h-0.3   c-6,0-12.299-0.601-18.3-1.5C345.801,503,311,467.199,303.5,424.6c-5.7-33.6,4.801-67.5,28.5-91.5V76c0-41.4,33.6-75,75-75   s75,33.6,75,75v15l-17.701,18.6L482,121v212.1C501.2,352.599,512,378.999,512,406z"/>
	<path style="fill:#BDD9F1;" d="M512,406c0,31.199-13.801,60.3-37.5,80.4C455.6,502.299,431.901,512,407,512V1c41.4,0,75,33.6,75,75   v15l-17.701,18.6L482,121v212.1C501.2,352.599,512,378.999,512,406z"/>
	<g>
		<g>
			<path style="fill:#F16523;" d="M422,76v300c0,8.399-6.599,15-15,15s-15-6.601-15-15V76c0-8.401,6.599-15,15-15S422,67.599,422,76     z"/>
		</g>
	</g>
	<g>
		<g>
			<path style="fill:#F16523;" d="M407,361c-24.901,0-45,20.099-45,45c0,24.899,20.099,45,45,45s45-20.101,45-45     C452,381.099,431.901,361,407,361z"/>
		</g>
	</g>
	<g>
		<path style="fill:#EE3D23;" d="M482,91v30h-30c-8.401,0-15-6.601-15-15c0-8.401,6.599-15,15-15H482z"/>
	</g>
	<path style="fill:#EE3D23;" d="M452,406c0,24.899-20.099,45-45,45v-90C431.901,361,452,381.099,452,406z"/>
	<path style="fill:#EE3D23;" d="M422,76v300c0,8.399-6.599,15-15,15V61C415.401,61,422,67.599,422,76z"/>
</g>















</svg>
