<?xml version="1.0" encoding="iso-8859-1"?>
<!-- Generator: Adobe Illustrator 21.0.0, SVG Export Plug-In . SVG Version: 6.00 Build 0)  -->
<svg xmlns="http://www.w3.org/2000/svg" xmlns:xlink="http://www.w3.org/1999/xlink" version="1.1" id="Capa_1" x="0px" y="0px" viewBox="0 0 512 512" style="enable-background:new 0 0 512 512;" xml:space="preserve" width="512" height="512">
<g>
	<g>
		<g>
			<path style="fill:#E0F3FC;" d="M321.114,181.601c-17.1-36.901-53.699-60.601-95.1-60.601s-77.999,23.699-95.099,60.601     c-52.5-5.7-99.901,36.599-99.901,89.399c0,49.501,40.499,90,90,90h210c49.501,0,90-40.499,90-90     C421.015,218.2,373.614,175.901,321.114,181.601z"/>
		</g>
	</g>
	<path style="fill:#F9BD13;" d="M472.68,106.274c-5.098-2.563-11.162-1.992-15.732,1.436c-10.649,8.042-23.071,12.29-35.933,12.29   c-33.091,0-60-26.909-60-60c0-12.861,4.248-25.283,12.29-35.933c3.413-4.556,3.823-10.649,1.289-15.747   C372.06,3.237,366.698,0,361.015,0c-66.167,0-120,53.833-120,120c0,8.013,0.806,16.04,2.373,23.862l144.785,92.593   c1.289,0,2.593-0.161,3.896-0.513c52.368-14.004,88.945-61.685,88.916-116.25C480.985,114.009,477.763,108.809,472.68,106.274z"/>
	<path style="fill:#BDD9F1;" d="M421.015,271c0,49.501-40.499,90-90,90h-105V121c41.4,0,77.999,23.699,95.1,60.601   C373.614,175.901,421.015,218.2,421.015,271z"/>
	<g>
		<g>
			<path style="fill:#FCD82D;" d="M329.215,338.5c-2.701-4.501-7.8-7.5-13.2-7.5h-75v-75c0-6.599-4.501-12.599-11.1-14.399     c-1.199-0.3-2.701-0.601-3.9-0.601c-5.099,0-9.901,2.701-12.9,7.2l-90,150c-2.701,4.801-2.701,10.501-0.3,15.3     c2.701,4.501,7.8,7.5,13.2,7.5h75v76c0,6.599,4.501,12.599,11.1,14.399c1.199,0.3,2.701,0.601,3.9,0.601     c5.099,0,10.201-2.701,12.9-7.2l90-151C331.615,348.999,331.615,343.299,329.215,338.5z"/>
		</g>
	</g>
	<path style="fill:#F9BD13;" d="M328.914,353.8l-90,151c-2.699,4.499-7.8,7.2-12.9,7.2V241c1.199,0,2.701,0.3,3.9,0.601   c6.599,1.8,11.1,7.8,11.1,14.399v75h75c5.4,0,10.499,2.999,13.2,7.5C331.615,343.299,331.615,348.999,328.914,353.8z"/>
</g>















</svg>
