<?xml version="1.0" encoding="iso-8859-1"?>
<!-- Generator: Adobe Illustrator 21.0.0, SVG Export Plug-In . SVG Version: 6.00 Build 0)  -->
<svg xmlns="http://www.w3.org/2000/svg" xmlns:xlink="http://www.w3.org/1999/xlink" version="1.1" id="Capa_1" x="0px" y="0px" viewBox="0 0 512.133 512.133" style="enable-background:new 0 0 512.133 512.133;" xml:space="preserve" width="512" height="512">
<g>
	<g id="Lightning_1_">
		<g>
			<g>
				<path style="fill:#FCD82D;" d="M361.051,0h-90c-6,0-11.4,3.6-13.801,9l-3.3,7.8l-86.7,204.2c-4.199,9.901,3.001,21,13.801,21      h39.3l-83.399,250.199c-5.7,17.1,17.699,27.9,26.999,12.601l180-300c6-10.201-1.199-22.8-12.9-22.8h-35.7l79.2-160.401      C379.351,11.7,372.151,0,361.051,0z"/>
			</g>
		</g>
	</g>
	<path style="fill:#F9BD13;" d="M374.552,21.599L295.351,182h35.7c11.7,0,18.9,12.599,12.9,22.8l-90,150v-338l3.3-7.8   c2.401-5.4,7.8-9,13.801-9h90C372.151,0,379.351,11.7,374.552,21.599z"/>
</g>















</svg>
