<?xml version="1.0" encoding="iso-8859-1"?>
<!-- Generator: Adobe Illustrator 21.0.0, SVG Export Plug-In . SVG Version: 6.00 Build 0)  -->
<svg xmlns="http://www.w3.org/2000/svg" xmlns:xlink="http://www.w3.org/1999/xlink" version="1.1" id="Capa_1" x="0px" y="0px" viewBox="0 0 512 512" style="enable-background:new 0 0 512 512;" xml:space="preserve" width="512" height="512">
<g>
	<rect x="106" y="75" style="fill:#FCD82D;" width="300" height="332"/>
	<rect x="256" y="75" style="fill:#F9BD13;" width="150" height="332"/>
	<path style="fill:#48578C;" d="M378.1,60H134.5L91,90v302l55.499,30h239.401L421,392V90L378.1,60z M391,392H121V90h270V392z"/>
	<polygon style="fill:#2A3C74;" points="421,90 421,392 385.901,422 256,422 256,392 391,392 391,90 256,90 256,60 378.1,60  "/>
	<g>
		<g>
			<path style="fill:#62729A;" d="M406,0H106c-8.401,0-15,6.599-15,15v75h330V15C421,6.599,414.401,0,406,0z"/>
		</g>
	</g>
	<path style="fill:#62729A;" d="M421,392v105c0,8.399-6.599,15-15,15H106c-8.401,0-15-6.601-15-15V392h150l15,16.199l1.199,1.199   L271,392H421z"/>
	<path style="fill:#48578C;" d="M421,15v75H256V0h150C414.401,0,421,6.599,421,15z"/>
	<path style="fill:#48578C;" d="M271,392h150v105c0,8.399-6.599,15-15,15H256V408.199l1.199,1.199L271,392z"/>
	<g>
		<path style="fill:#E0F3FC;" d="M271,392v45c0,8.399-6.599,15-15,15s-15-6.601-15-15v-45H271z"/>
	</g>
	<g>
		<path style="fill:#76E2F8;" d="M196,361c-8.291,0-15-6.709-15-15v-30c0-8.291,6.709-15,15-15s15,6.709,15,15v30    C211,354.291,204.291,361,196,361z"/>
	</g>
	<g>
		<path style="fill:#76E2F8;" d="M271,316v30c0,8.399-6.599,15-15,15s-15-6.601-15-15v-30c0-8.401,6.599-15,15-15    S271,307.599,271,316z"/>
	</g>
	<g>
		<g>
			<path style="fill:#25D9F8;" d="M316,361c-8.291,0-15-6.709-15-15v-30c0-8.291,6.709-15,15-15s15,6.709,15,15v30     C331,354.291,324.291,361,316,361z"/>
		</g>
	</g>
	<g>
		<g>
			<path style="fill:#E0F3FC;" d="M329.801,183.1c-6-35.101-36.901-62.1-73.801-62.1s-67.8,26.999-73.801,62.1     C164.2,189.099,151,205.899,151,226c0,24.899,20.099,45,45,45h120c24.901,0,45-20.101,45-45     C361,205.899,347.8,189.099,329.801,183.1z"/>
		</g>
	</g>
	<path style="fill:#25D9F8;" d="M256,361v-60c8.401,0,15,6.599,15,15v30C271,354.399,264.401,361,256,361z"/>
	<path style="fill:#BDD9F1;" d="M316,271h-60V121c36.899,0,67.8,26.999,73.801,62.1C347.8,189.099,361,205.899,361,226   C361,250.899,340.901,271,316,271z"/>
	<path style="fill:#BDD9F1;" d="M271,392v45c0,8.399-6.599,15-15,15v-60H271z"/>
</g>















</svg>
