<?xml version="1.0" encoding="iso-8859-1"?>
<!-- Generator: Adobe Illustrator 21.0.0, SVG Export Plug-In . SVG Version: 6.00 Build 0)  -->
<svg xmlns="http://www.w3.org/2000/svg" xmlns:xlink="http://www.w3.org/1999/xlink" version="1.1" id="Capa_1" x="0px" y="0px" viewBox="0 0 512 512" style="enable-background:new 0 0 512 512;" xml:space="preserve" width="512" height="512">
<g>
	<g>
		<g>
			<path style="fill:#E0F3FC;" d="M256,0C115.3,0,0,115.3,0,256s115.3,256,256,256s256-115.3,256-256S396.7,0,256,0z"/>
		</g>
	</g>
	<path style="fill:#BDD9F1;" d="M512,256c0,140.7-115.3,256-256,256V0C396.7,0,512,115.3,512,256z"/>
	<g>
		<path style="fill:#76E2F8;" d="M151,211c-24.814,0-45-20.186-45-45s20.186-45,45-45s45,20.186,45,45S175.814,211,151,211z     M151,151c-8.276,0-15,6.724-15,15s6.724,15,15,15s15-6.724,15-15S159.276,151,151,151z"/>
	</g>
	<g>
		<path style="fill:#76E2F8;" d="M404.2,348.999c-9.3,46.5-54.901,80.099-106.199,70.201C281.8,415.899,267.4,408.1,256,397.599    c-18.9-17.399-30-42.9-30-69.899V198.699c0-35.7,11.1-64.799,30-83.399c11.4-11.4,25.8-19.2,42.001-22.5    C349.3,82.899,394.9,116.499,404.2,162.999c1.8,9.3-5.4,18.001-15,18.001h-30.901c-6.299,0-11.999-4.2-14.099-9.901    C340,159.399,328.9,151,316,151c-16.5,0-30,13.5-30,30v150c0,16.5,13.5,30,30,30c12.9,0,24-8.401,28.2-20.101    C346.3,335.2,352,331,358.299,331H389.2C398.8,331,406,339.699,404.2,348.999z"/>
	</g>
	<path style="fill:#25D9F8;" d="M404.2,348.999c-9.3,46.5-54.901,80.099-106.199,70.201C281.8,415.899,267.4,408.1,256,397.599   V115.3c11.4-11.4,25.8-19.2,42.001-22.5C349.3,82.899,394.9,116.499,404.2,162.999c1.8,9.3-5.4,18.001-15,18.001h-30.901   c-6.299,0-11.999-4.2-14.099-9.901C340,159.399,328.9,151,316,151c-16.5,0-30,13.5-30,30v150c0,16.5,13.5,30,30,30   c12.9,0,24-8.401,28.2-20.101C346.3,335.2,352,331,358.299,331H389.2C398.8,331,406,339.699,404.2,348.999z"/>
</g>















</svg>
